<?xml version="1.0" encoding="UTF-8"?>
<svg width="300px" height="200px" viewBox="0 0 300 200" version="1.1" xmlns="http://www.w3.org/2000/svg" xmlns:xlink="http://www.w3.org/1999/xlink">
    <!-- Generator: Sketch 53.2 (72643) - https://sketchapp.com -->
    <title>Comments</title>
    <desc>Created with Sketch.</desc>
    <defs>
        <linearGradient x1="50%" y1="0.339139775%" x2="50%" y2="89.231443%" id="linearGradient-1">
            <stop stop-color="#E8E0D8" offset="0%"></stop>
            <stop stop-color="#E8E6E2" offset="100%"></stop>
        </linearGradient>
        <rect id="path-2" x="0" y="0" width="300" height="200" rx="12"></rect>
    </defs>
    <g id="Page-1" stroke="none" stroke-width="1" fill="none" fill-rule="evenodd">
        <g id="Artboard-Copy-4" transform="translate(-547.000000, -469.000000)">
            <g id="Group-3" transform="translate(547.000000, 469.000000)">
                <g id="Comments">
                    <mask id="mask-3" fill="white">
                        <use xlink:href="#path-2"></use>
                    </mask>
                    <use id="Rectangle" fill="url(#linearGradient-1)" xlink:href="#path-2"></use>
                    <path d="M32.5,-0.5 L267.5,-0.5 L267.5,166 C267.5,171.246705 263.246705,175.5 258,175.5 L42,175.5 C36.7532949,175.5 32.5,171.246705 32.5,166 L32.5,-0.5 Z" id="Rectangle" stroke="#DEDCD8" fill="#FFFFFF" mask="url(#mask-3)"></path>
                    <circle id="Oval" fill="#4CA3E2" mask="url(#mask-3)" cx="231" cy="142" r="18"></circle>
                    <path d="M226.958573,149.687944 L240.004888,143.163426 C240.647033,142.842287 240.90726,142.06139 240.58612,141.419245 C240.46034,141.167736 240.256397,140.963793 240.004888,140.838012 L226.955667,134.312041 C226.313522,133.990902 225.532625,134.251128 225.211486,134.893274 C225.086451,135.143292 225.045336,135.426954 225.094242,135.702183 L225.853606,139.97571 C225.912787,140.308763 226.184377,140.562978 226.52061,140.600043 L234.365885,141.464865 C234.492061,141.478774 234.588615,141.583669 234.592045,141.710563 L234.600952,142.040039 C234.609281,142.34814 234.373566,142.608186 234.066131,142.630066 L226.599508,143.161474 C226.251434,143.186247 225.964626,143.444208 225.90323,143.787719 L225.097378,148.296513 C224.971057,149.003284 225.441605,149.678637 226.148376,149.804958 C226.423996,149.854219 226.708155,149.813179 226.958573,149.687944 Z" id="Path" fill="#FFFFFF" mask="url(#mask-3)"></path>
                    <rect id="Rectangle" fill="#EBEBEB" mask="url(#mask-3)" x="97" y="18" width="145" height="7" rx="3.5"></rect>
                    <rect id="Rectangle-Copy-3" fill="#EBEBEB" mask="url(#mask-3)" x="97" y="83" width="145" height="7" rx="3.5"></rect>
                    <rect id="Rectangle-Copy-5" fill="#F2F2F2" mask="url(#mask-3)" x="53" y="126" width="148" height="32" rx="16"></rect>
                    <rect id="Rectangle-Copy-2" fill="#EBEBEB" mask="url(#mask-3)" x="97" y="33" width="96" height="7" rx="3.5"></rect>
                    <rect id="Rectangle-Copy-4" fill="#EBEBEB" mask="url(#mask-3)" x="97" y="98" width="96" height="7" rx="3.5"></rect>
                    <circle id="Oval" fill="#EBEBEB" mask="url(#mask-3)" cx="68" cy="30" r="15"></circle>
                    <circle id="Oval-Copy" fill="#EBEBEB" mask="url(#mask-3)" cx="68" cy="93" r="15"></circle>
                    <path d="M75.1175781,143.759766 C75.0173172,144.82162 74.625394,145.649899 73.9417969,146.244629 C73.2581997,146.839358 72.3490291,147.136719 71.2142578,147.136719 C70.4212851,147.136719 69.7228871,146.948732 69.1190429,146.572754 C68.5151988,146.196775 68.0492204,145.662438 67.7210937,144.969727 C67.3929671,144.277015 67.2220704,143.472661 67.2083984,142.556641 L67.2083984,141.626953 C67.2083984,140.688146 67.3747379,139.861006 67.7074219,139.145508 C68.0401058,138.430009 68.5174773,137.878583 69.1395508,137.491211 C69.7616242,137.103839 70.4805298,136.910156 71.296289,136.910156 C72.3946018,136.910156 73.2787076,137.208656 73.9486328,137.805664 C74.618558,138.402672 75.0082026,139.245763 75.1175781,140.334961 L73.3949219,140.334961 C73.3128902,139.619463 73.1043962,139.103354 72.7694336,138.786621 C72.434471,138.469888 71.9434277,138.311523 71.296289,138.311523 C70.5443322,138.311523 69.9667012,138.586098 69.5633789,139.135254 C69.1600566,139.68441 68.9538412,140.489904 68.9447265,141.551758 L68.9447265,142.433594 C68.9447265,143.50912 69.1372702,144.329424 69.5223633,144.894531 C69.9074563,145.459638 70.4714155,145.742188 71.2142578,145.742188 C71.8932976,145.742188 72.4037092,145.58952 72.7455078,145.28418 C73.0873064,144.97884 73.3037756,144.470707 73.3949219,143.759766 L75.1175781,143.759766 Z M75.8408203,143.233398 C75.8408203,142.508785 75.9843735,141.85596 76.2714844,141.274902 C76.5585952,140.693845 76.9619114,140.247235 77.4814453,139.935059 C78.0009791,139.622883 78.5979784,139.466797 79.2724609,139.466797 C80.2705128,139.466797 81.0805633,139.788083 81.7026367,140.430664 C82.3247101,141.073245 82.660807,141.92545 82.7109375,142.987305 L82.7177734,143.376953 C82.7177734,144.106123 82.5776381,144.75781 82.2973633,145.332031 C82.0170884,145.906253 81.6160508,146.350584 81.0942383,146.665039 C80.5724258,146.979494 79.96973,147.136719 79.2861328,147.136719 C78.2425078,147.136719 77.4073924,146.789229 76.7807617,146.094238 C76.154131,145.399248 75.8408203,144.472988 75.8408203,143.31543 L75.8408203,143.233398 Z M77.5019531,143.376953 C77.5019531,144.138025 77.6591781,144.733885 77.9736328,145.164551 C78.2880875,145.595217 78.7255831,145.810547 79.2861328,145.810547 C79.8466825,145.810547 80.2830388,145.591799 80.5952148,145.154297 C80.9073909,144.716795 81.0634765,144.076502 81.0634765,143.233398 C81.0634765,142.485999 80.9028336,141.893557 80.581543,141.456055 C80.2602523,141.018552 79.823896,140.799805 79.2724609,140.799805 C78.7301405,140.799805 78.2994807,141.015135 77.9804687,141.445801 C77.6614567,141.876467 77.5019531,142.520178 77.5019531,143.376953 Z M85.3345703,139.603516 L85.3824219,140.375977 C85.9019557,139.769854 86.6128861,139.466797 87.5152344,139.466797 C88.5041716,139.466797 89.1809226,139.845048 89.5455078,140.601562 C90.0832709,139.845048 90.8397738,139.466797 91.8150391,139.466797 C92.6307983,139.466797 93.2380514,139.692381 93.6368164,140.143555 C94.0355814,140.594729 94.2395182,141.260087 94.2486328,142.139648 L94.2486328,147 L92.5875,147 L92.5875,142.1875 C92.5875,141.718097 92.484962,141.374025 92.2798828,141.155273 C92.0748037,140.936522 91.7352888,140.827148 91.2613281,140.827148 C90.883071,140.827148 90.5743176,140.928547 90.3350586,141.131348 C90.0957996,141.334148 89.9283208,141.599608 89.8326172,141.927734 L89.8394531,147 L88.1783203,147 L88.1783203,142.132812 C88.1555337,141.262365 87.7112022,140.827148 86.8453125,140.827148 C86.1799446,140.827148 85.7082696,141.098305 85.4302734,141.640625 L85.4302734,147 L83.7691406,147 L83.7691406,139.603516 L85.3345703,139.603516 Z M97.1662109,139.603516 L97.2140625,140.375977 C97.7335963,139.769854 98.4445267,139.466797 99.346875,139.466797 C100.335812,139.466797 101.012563,139.845048 101.377148,140.601562 C101.914912,139.845048 102.671414,139.466797 103.64668,139.466797 C104.462439,139.466797 105.069692,139.692381 105.468457,140.143555 C105.867222,140.594729 106.071159,141.260087 106.080273,142.139648 L106.080273,147 L104.419141,147 L104.419141,142.1875 C104.419141,141.718097 104.316603,141.374025 104.111523,141.155273 C103.906444,140.936522 103.566929,140.827148 103.092969,140.827148 C102.714712,140.827148 102.405958,140.928547 102.166699,141.131348 C101.92744,141.334148 101.759961,141.599608 101.664258,141.927734 L101.671094,147 L100.009961,147 L100.009961,142.132812 C99.9871744,141.262365 99.5428429,140.827148 98.6769531,140.827148 C98.0115852,140.827148 97.5399102,141.098305 97.2619141,141.640625 L97.2619141,147 L95.6007812,147 L95.6007812,139.603516 L97.1662109,139.603516 Z M110.693164,147.136719 C109.640424,147.136719 108.78708,146.805179 108.133105,146.14209 C107.479131,145.479001 107.152148,144.596034 107.152148,143.493164 L107.152148,143.288086 C107.152148,142.549801 107.294562,141.89014 107.579395,141.309082 C107.864227,140.728024 108.264125,140.275718 108.779102,139.952148 C109.294078,139.628579 109.868291,139.466797 110.501758,139.466797 C111.508924,139.466797 112.287074,139.788083 112.83623,140.430664 C113.385387,141.073245 113.659961,141.982416 113.659961,143.158203 L113.659961,143.828125 L108.826953,143.828125 C108.877084,144.438805 109.08102,144.921873 109.43877,145.277344 C109.796519,145.632814 110.246547,145.810547 110.788867,145.810547 C111.549939,145.810547 112.169724,145.502933 112.648242,144.887695 L113.54375,145.742188 C113.247525,146.184247 112.852183,146.52718 112.357715,146.770996 C111.863246,147.014812 111.308402,147.136719 110.693164,147.136719 Z M110.494922,140.799805 C110.03919,140.799805 109.671193,140.959308 109.390918,141.27832 C109.110643,141.597332 108.931771,142.041664 108.854297,142.611328 L112.019336,142.611328 L112.019336,142.488281 C111.982877,141.932289 111.834767,141.511883 111.575,141.227051 C111.315233,140.942219 110.955211,140.799805 110.494922,140.799805 Z M116.140039,139.603516 L116.187891,140.458008 C116.734768,139.797197 117.452535,139.466797 118.341211,139.466797 C119.881583,139.466797 120.66543,140.348624 120.692773,142.112305 L120.692773,147 L119.031641,147 L119.031641,142.208008 C119.031641,141.738604 118.930242,141.391114 118.727441,141.165527 C118.524641,140.93994 118.193101,140.827148 117.732813,140.827148 C117.062887,140.827148 116.563869,141.130205 116.235742,141.736328 L116.235742,147 L114.574609,147 L114.574609,139.603516 L116.140039,139.603516 Z M124.116211,137.805664 L124.116211,139.603516 L125.421875,139.603516 L125.421875,140.833984 L124.116211,140.833984 L124.116211,144.962891 C124.116211,145.245444 124.172037,145.449381 124.283691,145.574707 C124.395346,145.700033 124.594725,145.762695 124.881836,145.762695 C125.073243,145.762695 125.266926,145.739909 125.462891,145.694336 L125.462891,146.979492 C125.084634,147.08431 124.720054,147.136719 124.369141,147.136719 C123.093093,147.136719 122.455078,146.432624 122.455078,145.024414 L122.455078,140.833984 L121.238281,140.833984 L121.238281,139.603516 L122.455078,139.603516 L122.455078,137.805664 L124.116211,137.805664 Z" id="Comment" fill="#B7B9BB" fill-rule="nonzero" mask="url(#mask-3)"></path>
                    <rect id="Rectangle" fill="#000000" opacity="0.0488048735" mask="url(#mask-3)" x="33" y="0" width="234" height="1"></rect>
                    <g id="LikeFilled-Blue-Copy" mask="url(#mask-3)" fill-rule="nonzero">
                        <g transform="translate(100.000000, 49.000000)">
                            <path d="M30.3313047,10.5703281 L31.5398008,10.5703281 L31.5398008,12.2768711 L30.3313047,12.2768711 L30.3313047,14.584 L28.2146055,14.584 L28.2146055,12.2768711 L23.8420469,12.2768711 L23.746832,10.9438633 L28.1926328,3.9199375 L30.3313047,3.9199375 L30.3313047,10.5703281 Z M25.856207,10.5703281 L28.2146055,10.5703281 L28.2146055,6.80567969 L28.0754453,7.04737891 L25.856207,10.5703281 Z M39.984625,14.584 L32.6750547,14.584 L32.6750547,13.1338047 L36.1247617,9.45704687 C36.5983969,8.93946616 36.9487352,8.48781052 37.1757871,8.10206641 C37.402839,7.71632229 37.5163633,7.35011501 37.5163633,7.00343359 C37.5163633,6.52979841 37.3967356,6.15748768 37.1574766,5.88649023 C36.9182176,5.61549279 36.5764241,5.47999609 36.1320859,5.47999609 C35.6535679,5.47999609 35.2763744,5.64478937 35.0004941,5.97438086 C34.7246139,6.30397235 34.5866758,6.73731763 34.5866758,7.27442969 L32.4626523,7.27442969 C32.4626523,6.62501238 32.6176801,6.03175659 32.9277402,5.49464453 C33.2378004,4.95753247 33.6760284,4.5363941 34.2424375,4.2312168 C34.8088466,3.92603949 35.45093,3.77345312 36.168707,3.77345312 C37.2673453,3.77345312 38.1206083,4.03712236 38.7285215,4.56446875 C39.3364347,5.09181514 39.6403867,5.8364366 39.6403867,6.79835547 C39.6403867,7.32570186 39.5036693,7.86280586 39.2302305,8.40968359 C38.9567916,8.95656133 38.4880463,9.59376199 37.8239805,10.3213047 L35.3996641,12.877457 L39.984625,12.877457 L39.984625,14.584 Z" id="42" fill="#4BA3E2"></path>
                            <path d="M0.13437265,6.79028369 L2.24481367,2.7409865 C2.52936752,2.25396071 3.0431453,1 3.60434872,1 L10.6904486,1 C11.4443729,1 12,1.32246017 12,1.59534188 L12,9.26599811 C12,9.69620431 11.6904205,10.1101762 11.3900581,10.4186258 L6.51012356,14.9921221 C5.93702583,15.0274363 5.42574466,14.9639196 5.39757508,14.3845973 C5.36957913,13.8088458 5.17626716,13.2440735 5.21578853,13.0654974 L6.03550296,8.70707443 L1.5808547,8.70707443 C0.71138461,8.70707443 0.00393443362,8.46928597 0.0184959716,7.81801372 L5.47117907e-13,7.43965143 C5.47117907e-13,7.21237272 0.04742564,6.99321111 0.13437265,6.79028369 Z M14,1.1009089 L15,1.1009089 C15.5522847,1.1009089 16,1.55312555 16,2.11096306 L16,8.17128798 C16,8.72912549 15.5522847,9.18134213 15,9.18134213 L14,9.18134213 C13.4477153,9.18134213 13,8.72912549 13,8.17128798 L13,2.11096306 C13,1.55312555 13.4477153,1.1009089 14,1.1009089 Z" id="Shape" fill="#4CA3E2" transform="translate(8.000000, 8.000000) rotate(180.000000) translate(-8.000000, -8.000000) "></path>
                        </g>
                    </g>
                </g>
            </g>
        </g>
    </g>
</svg>