<?xml version="1.0" encoding="UTF-8"?>
<svg width="300px" height="200px" viewBox="0 0 300 200" version="1.1" xmlns="http://www.w3.org/2000/svg" xmlns:xlink="http://www.w3.org/1999/xlink">
    <!-- Generator: Sketch 53.2 (72643) - https://sketchapp.com -->
    <title>Login</title>
    <desc>Created with Sketch.</desc>
    <defs>
        <linearGradient x1="50%" y1="0%" x2="50%" y2="89.342272%" id="linearGradient-1">
            <stop stop-color="#5377AA" offset="0%"></stop>
            <stop stop-color="#739CC3" offset="100%"></stop>
        </linearGradient>
        <linearGradient x1="50%" y1="0.339139775%" x2="50%" y2="89.231443%" id="linearGradient-2">
            <stop stop-color="#E8E0D8" offset="0%"></stop>
            <stop stop-color="#E8E6E2" offset="100%"></stop>
        </linearGradient>
        <rect id="path-3" x="0" y="0" width="300" height="200" rx="12"></rect>
        <path d="M35,61 C37.0695415,61 39.0575085,60.6507378 40.9081738,60.0079406 C47.9472531,57.5630356 53,50.871584 53,43 C53,33.0588745 44.9411255,25 35,25 C25.0588745,25 17,33.0588745 17,43 C17,52.9411255 25.0588745,61 35,61 Z" id="path-5"></path>
        <path d="M35,61 C37.0695415,61 39.0575085,60.6507378 40.9081738,60.0079406 C47.9472531,57.5630356 53,50.871584 53,43 C53,33.0588745 44.9411255,25 35,25 C25.0588745,25 17,33.0588745 17,43 C17,52.9411255 25.0588745,61 35,61 Z" id="path-7"></path>
    </defs>
    <g id="Page-1" stroke="none" stroke-width="1" fill="none" fill-rule="evenodd">
        <g id="Artboard-Copy-4" transform="translate(-547.000000, -182.000000)">
            <g id="Group-2" transform="translate(547.000000, 182.000000)">
                <g id="Login">
                    <mask id="mask-4" fill="white">
                        <use xlink:href="#path-3"></use>
                    </mask>
                    <use id="Rectangle" fill="url(#linearGradient-2)" xlink:href="#path-3"></use>
                    <path d="M67.5,36.6815252 L58.31006,27.5788495 C57.9687735,27.2408037 57.7767659,26.7803659 57.7767659,26.3 C57.7767659,25.3058875 58.5826534,24.5 59.5767659,24.5 L259,24.5 C264.246705,24.5 268.5,28.7532949 268.5,34 L268.5,166 C268.5,171.246705 264.246705,175.5 259,175.5 L77,175.5 C71.7532949,175.5 67.5,171.246705 67.5,166 L67.5,36.6815252 Z" id="Combined-Shape" stroke="#DEDCD8" fill="#FFFFFF" mask="url(#mask-4)"></path>
                    <path d="M230.521484,96.2539062 L231.649414,96.2539062 L231.649414,97.8466797 L230.521484,97.8466797 L230.521484,100 L228.545898,100 L228.545898,97.8466797 L224.464844,97.8466797 L224.375977,96.6025391 L228.525391,90.046875 L230.521484,90.046875 L230.521484,96.2539062 Z M226.344727,96.2539062 L228.545898,96.2539062 L228.545898,92.7402344 L228.416016,92.9658203 L226.344727,96.2539062 Z M239.53125,100 L232.708984,100 L232.708984,98.6464844 L235.928711,95.2148438 C236.37077,94.7317684 236.697753,94.3102232 236.909668,93.9501953 C237.121583,93.5901675 237.227539,93.248374 237.227539,92.9248047 C237.227539,92.4827452 237.115887,92.1352552 236.892578,91.8823242 C236.66927,91.6293933 236.350262,91.5029297 235.935547,91.5029297 C235.48893,91.5029297 235.136883,91.6567367 234.879395,91.9643555 C234.621906,92.2719742 234.493164,92.6764298 234.493164,93.1777344 L232.510742,93.1777344 C232.510742,92.5716116 232.655435,92.0179062 232.944824,91.5166016 C233.234214,91.015297 233.643227,90.6222345 234.171875,90.3374023 C234.700523,90.0525702 235.299801,89.9101562 235.969727,89.9101562 C236.995122,89.9101562 237.791501,90.1562475 238.358887,90.6484375 C238.926272,91.1406275 239.209961,91.8356075 239.209961,92.7333984 C239.209961,93.2255884 239.082358,93.7268855 238.827148,94.2373047 C238.571939,94.7477239 238.134443,95.3424445 237.514648,96.0214844 L235.251953,98.4072266 L239.53125,98.4072266 L239.53125,100 Z M244.070312,96.0078125 L243.003906,97.15625 L243.003906,100 L240.953125,100 L240.953125,90.046875 L243.003906,90.046875 L243.003906,94.5585938 L243.90625,93.3212891 L246.442383,90.046875 L248.964844,90.046875 L245.430664,94.4697266 L249.067383,100 L246.626953,100 L244.070312,96.0078125 Z" id="42K" fill="#D1D1D1" fill-rule="nonzero" mask="url(#mask-4)"></path>
                    <path d="M210,89 C205.909091,89 202.415455,91.488 201,95 C202.415455,98.512 205.909091,101 210,101 C214.090909,101 217.584545,98.512 219,95 C217.584545,91.488 214.090909,89 210,89 Z M210,99 C207.741818,99 205.909091,97.208 205.909091,95 C205.909091,92.792 207.741818,91 210,91 C212.258182,91 214.090909,92.792 214.090909,95 C214.090909,97.208 212.258182,99 210,99 Z M210,92.6 C208.641818,92.6 207.545455,93.672 207.545455,95 C207.545455,96.328 208.641818,97.4 210,97.4 C211.358182,97.4 212.454545,96.328 212.454545,95 C212.454545,93.672 211.358182,92.6 210,92.6 Z" id="Shape" fill="#D1D1D1" fill-rule="nonzero" mask="url(#mask-4)"></path>
                    <rect id="Rectangle" fill="#EBEBEB" mask="url(#mask-4)" x="87" y="61" width="162" height="7" rx="3.5"></rect>
                    <rect id="Rectangle-Copy-6" fill="#EBEBEB" mask="url(#mask-4)" x="87" y="44" width="162" height="7" rx="3.5"></rect>
                    <rect id="Rectangle-Copy" fill="#EBEBEB" mask="url(#mask-4)" x="87" y="78" width="88" height="7" rx="3.5"></rect>
                    <g id="Btn" mask="url(#mask-4)">
                        <g transform="translate(99.000000, 125.000000)">
                            <rect id="Rectangle" fill="#5CC467" fill-rule="evenodd" x="0" y="0" width="140" height="34" rx="17"></rect>
                            <path d="M21.3403322,19.7084961 L23.4350587,12.7578125 L25.5551759,12.7578125 L22.3369142,22 L20.3500978,22 L17.1445314,12.7578125 L19.2583009,12.7578125 L21.3403322,19.7084961 Z M28.1247071,22 L26.2204103,22 L26.2204103,12.7578125 L28.1247071,12.7578125 L28.1247071,22 Z M35.1249024,17.9946289 L31.4686524,17.9946289 L31.4686524,20.4702148 L35.7596681,20.4702148 L35.7596681,22 L29.5643556,22 L29.5643556,12.7578125 L35.7469728,12.7578125 L35.7469728,14.300293 L31.4686524,14.300293 L31.4686524,16.5029297 L35.1249024,16.5029297 L35.1249024,17.9946289 Z M43.7500977,19.3339844 L44.9942384,12.7578125 L46.8921876,12.7578125 L44.8418946,22 L42.9249024,22 L41.4205079,15.8173828 L39.9161134,22 L37.9991212,22 L35.9488282,12.7578125 L37.8467774,12.7578125 L39.0972657,19.3212891 L40.6207032,12.7578125 L42.2330079,12.7578125 L43.7500977,19.3339844 Z M52.5327149,22 L50.628418,22 L50.628418,12.7578125 L52.5327149,12.7578125 L52.5327149,22 Z M61.4879883,22 L59.5836914,22 L55.8766602,15.9189453 L55.8766602,22 L53.9723633,22 L53.9723633,12.7578125 L55.8766602,12.7578125 L59.5900391,18.8515625 L59.5900391,12.7578125 L61.4879883,12.7578125 L61.4879883,22 Z M72.99375,18.9213867 C72.9218095,19.9158578 72.5547071,20.6987276 71.8924316,21.2700195 C71.2301562,21.8413115 70.3573622,22.1269531 69.2740234,22.1269531 C68.0891217,22.1269531 67.1570835,21.7281127 66.4778809,20.9304199 C65.7986782,20.1327271 65.459082,19.0377674 65.459082,17.6455078 L65.459082,17.0805664 C65.459082,16.1918901 65.615656,15.4090203 65.9288086,14.7319336 C66.2419612,14.0548469 66.6894665,13.5354022 67.2713379,13.173584 C67.8532093,12.8117658 68.5292279,12.6308594 69.2994141,12.6308594 C70.3658256,12.6308594 71.2248665,12.916501 71.8765625,13.487793 C72.5282585,14.0590849 72.9048823,14.8609974 73.0064453,15.8935547 L71.1021484,15.8935547 C71.0555987,15.296872 70.8895034,14.8641778 70.6038574,14.595459 C70.3182115,14.3267402 69.8834013,14.1923828 69.2994141,14.1923828 C68.6646453,14.1923828 68.1896337,14.4198382 67.8743652,14.8747559 C67.5590967,15.3296735 67.3972331,16.0353142 67.3887695,16.9916992 L67.3887695,17.6899414 C67.3887695,18.6886443 67.5400538,19.4186175 67.8426269,19.8798828 C68.1452001,20.3411481 68.6223275,20.5717773 69.2740234,20.5717773 C69.8622425,20.5717773 70.3012843,20.43742 70.5911621,20.1687012 C70.8810399,19.8999824 71.0471352,19.4842151 71.0894531,18.9213867 L72.99375,18.9213867 Z M81.4412109,22 L79.536914,22 L79.536914,18.0390625 L75.8235351,18.0390625 L75.8235351,22 L73.9192383,22 L73.9192383,12.7578125 L75.8235351,12.7578125 L75.8235351,16.5029297 L79.536914,16.5029297 L79.536914,12.7578125 L81.4412109,12.7578125 L81.4412109,22 Z M88.1113281,20.0957031 L84.7724609,20.0957031 L84.1376953,22 L82.1127929,22 L85.5532226,12.7578125 L87.317871,12.7578125 L90.7773437,22 L88.7524414,22 L88.1113281,20.0957031 Z M85.286621,18.5532227 L87.5971679,18.5532227 L86.4355468,15.09375 L85.286621,18.5532227 Z M98.8312499,22 L96.9269531,22 L93.2199218,15.9189453 L93.2199218,22 L91.3156249,22 L91.3156249,12.7578125 L93.2199218,12.7578125 L96.9333007,18.8515625 L96.9333007,12.7578125 L98.8312499,12.7578125 L98.8312499,22 Z M107.684961,22 L105.780664,22 L102.073633,15.9189453 L102.073633,22 L100.169336,22 L100.169336,12.7578125 L102.073633,12.7578125 L105.787012,18.8515625 L105.787012,12.7578125 L107.684961,12.7578125 L107.684961,22 Z M114.583594,17.9946289 L110.927344,17.9946289 L110.927344,20.4702148 L115.218359,20.4702148 L115.218359,22 L109.023047,22 L109.023047,12.7578125 L115.205664,12.7578125 L115.205664,14.300293 L110.927344,14.300293 L110.927344,16.5029297 L114.583594,16.5029297 L114.583594,17.9946289 Z M117.914844,20.4702148 L121.958301,20.4702148 L121.958301,22 L116.010547,22 L116.010547,12.7578125 L117.914844,12.7578125 L117.914844,20.4702148 Z" id="VIEWINCHANNEL" fill="#FFFFFF" fill-rule="nonzero"></path>
                        </g>
                    </g>
                    <path d="" id="Path-2" stroke="#979797" mask="url(#mask-4)"></path>
                    <mask id="mask-6" fill="white">
                        <use xlink:href="#path-5"></use>
                    </mask>
                    <use id="Oval" fill="#FFFFFF" xlink:href="#path-5"></use>
                    <path d="M35,46 C38.3137085,46 41,43.3137085 41,40 C41,36.6862915 38.3137085,34 35,34 C31.6862915,34 29,36.6862915 29,40 C29,43.3137085 31.6862915,46 35,46 Z" id="Oval" fill="#E3DED8" mask="url(#mask-6)"></path>
                    <rect id="Rectangle" fill="#E3DED8" mask="url(#mask-6)" x="24" y="49" width="22" height="18" rx="9"></rect>
                    <mask id="mask-8" fill="white">
                        <use xlink:href="#path-7"></use>
                    </mask>
                    <path stroke="#FFFFFF" stroke-width="2" d="M35,60 C36.9234282,60 38.8019739,59.6808904 40.5800687,59.0632994 C47.3615001,56.7078841 52,50.2959642 52,43 C52,33.6111593 44.3888407,26 35,26 C25.6111593,26 18,33.6111593 18,43 C18,52.3888407 25.6111593,60 35,60 Z"></path>
                </g>
            </g>
        </g>
    </g>
</svg>