<?xml version="1.0" encoding="UTF-8"?>
<svg width="300px" height="200px" viewBox="0 0 300 200" version="1.1" xmlns="http://www.w3.org/2000/svg" xmlns:xlink="http://www.w3.org/1999/xlink">
    <!-- Generator: Sketch 53.2 (72643) - https://sketchapp.com -->
    <title>Share Copy</title>
    <desc>Created with Sketch.</desc>
    <defs>
        <linearGradient x1="50%" y1="0%" x2="50%" y2="89.342272%" id="linearGradient-1">
            <stop stop-color="#66B3EE" offset="0%"></stop>
            <stop stop-color="#90C8F2" offset="100%"></stop>
        </linearGradient>
        <linearGradient x1="50%" y1="0.339139775%" x2="50%" y2="89.231443%" id="linearGradient-2">
            <stop stop-color="#E8E0D8" offset="0%"></stop>
            <stop stop-color="#E8E6E2" offset="100%"></stop>
        </linearGradient>
        <rect id="path-3" x="0" y="0" width="300" height="200" rx="12"></rect>
    </defs>
    <g id="Page-1" stroke="none" stroke-width="1" fill="none" fill-rule="evenodd">
        <g id="Artboard-Copy-4" transform="translate(-209.000000, -469.000000)">
            <g id="Group" transform="translate(209.000000, 469.000000)">
                <g id="Share-Copy">
                    <mask id="mask-4" fill="white">
                        <use xlink:href="#path-3"></use>
                    </mask>
                    <use id="Rectangle" fill="url(#linearGradient-2)" xlink:href="#path-3"></use>
                    <path d="M32.5,-0.5 L267.5,-0.5 L267.5,166 C267.5,171.246705 263.246705,175.5 258,175.5 L42,175.5 C36.7532949,175.5 32.5,171.246705 32.5,166 L32.5,-0.5 Z" id="Rectangle" stroke="#DEDCD8" fill="#FFFFFF" mask="url(#mask-4)"></path>
                    <rect id="Rectangle" fill="#EBEBEB" mask="url(#mask-4)" x="55" y="81" width="190" height="7" rx="3.5"></rect>
                    <rect id="Rectangle-Copy" fill="#EBEBEB" mask="url(#mask-4)" x="98" y="98" width="104" height="7" rx="3.5"></rect>
                    <rect id="Rectangle" fill="#000000" opacity="0.0488048735" mask="url(#mask-4)" x="33" y="0" width="234" height="1"></rect>
                    <g id="Btn" mask="url(#mask-4)">
                        <g transform="translate(107.000000, 124.000000)">
                            <rect id="Rectangle" fill="#4CA3E2" fill-rule="evenodd" x="0" y="0" width="85" height="34" rx="17"></rect>
                            <path d="M27.3259278,20.4702148 L31.3693848,20.4702148 L31.3693848,22 L25.4216309,22 L25.4216309,12.7578125 L27.3259278,12.7578125 L27.3259278,20.4702148 Z M39.3217285,17.5883789 C39.3217285,18.4982142 39.1609229,19.295895 38.8393067,19.9814453 C38.5176905,20.6669956 38.05749,21.1959617 37.4586914,21.5683594 C36.8598929,21.9407571 36.1732949,22.1269531 35.398877,22.1269531 C34.6329226,22.1269531 33.9494985,21.9428729 33.348584,21.574707 C32.7476695,21.2065411 32.2821794,20.6807489 31.9520996,19.9973145 C31.6220199,19.31388 31.4548666,18.5278365 31.4506348,17.6391602 L31.4506348,17.1821289 C31.4506348,16.2722936 31.6146143,15.471439 31.9425782,14.779541 C32.270542,14.087643 32.7339163,13.5565611 33.3327149,13.1862793 C33.9315134,12.8159975 34.6159955,12.6308594 35.3861817,12.6308594 C36.1563678,12.6308594 36.8408499,12.8159975 37.4396485,13.1862793 C38.038447,13.5565611 38.5018213,14.087643 38.8297852,14.779541 C39.1577491,15.471439 39.3217285,16.2701778 39.3217285,17.1757812 L39.3217285,17.5883789 Z M37.392041,17.1694336 C37.392041,16.2003532 37.2185402,15.4640325 36.8715332,14.9604492 C36.5245263,14.456866 36.0294141,14.2050781 35.3861817,14.2050781 C34.7471811,14.2050781 34.2541847,14.4536922 33.9071778,14.9509277 C33.5601708,15.4481633 33.3845541,16.1770785 33.3803223,17.1376953 L33.3803223,17.5883789 C33.3803223,18.5320685 33.5538232,19.2641576 33.9008301,19.784668 C34.247837,20.3051784 34.747181,20.5654297 35.398877,20.5654297 C36.0378776,20.5654297 36.5287581,20.3146998 36.8715332,19.8132324 C37.2143084,19.3117651 37.3878093,18.580734 37.392041,17.6201172 L37.392041,17.1694336 Z M47.6930176,20.8320312 C47.3502424,21.2425151 46.8657095,21.5609526 46.2394043,21.7873535 C45.6130991,22.0137544 44.9190956,22.1269531 44.1573731,22.1269531 C43.3575644,22.1269531 42.6561554,21.9523943 42.053125,21.6032715 C41.4500947,21.2541486 40.9846045,20.7473992 40.6566406,20.0830078 C40.3286768,19.4186165 40.1604655,18.6378626 40.152002,17.7407227 L40.152002,17.1123047 C40.152002,16.189774 40.307518,15.3910353 40.6185547,14.7160645 C40.9295914,14.0410936 41.3781546,13.5248228 41.9642578,13.1672363 C42.550361,12.8096499 43.236959,12.6308594 44.0240723,12.6308594 C45.1201064,12.6308594 45.9770314,12.8921686 46.5948731,13.4147949 C47.2127147,13.9374212 47.5787592,14.6980744 47.6930176,15.6967773 L45.839502,15.6967773 C45.7548661,15.1678033 45.5676121,14.7806002 45.2777344,14.5351562 C44.9878566,14.2897123 44.5890162,14.1669922 44.0812012,14.1669922 C43.433737,14.1669922 42.9407406,14.4103166 42.6021973,14.8969727 C42.2636539,15.3836287 42.0922689,16.1072543 42.0880371,17.0678711 L42.0880371,17.6582031 C42.0880371,18.6272835 42.2721173,19.3593725 42.6402832,19.8544922 C43.0084491,20.3496119 43.5479945,20.597168 44.2589356,20.597168 C44.9741084,20.597168 45.4840317,20.4448257 45.7887207,20.1401367 L45.7887207,18.546875 L44.0558106,18.546875 L44.0558106,17.144043 L47.6930176,17.144043 L47.6930176,20.8320312 Z M50.9354004,22 L49.0311035,22 L49.0311035,12.7578125 L50.9354004,12.7578125 L50.9354004,22 Z M59.8906738,22 L57.9863769,22 L54.2793457,15.9189453 L54.2793457,22 L52.3750488,22 L52.3750488,12.7578125 L54.2793457,12.7578125 L57.9927246,18.8515625 L57.9927246,12.7578125 L59.8906738,12.7578125 L59.8906738,22 Z" id="LOGIN" fill="#FFFFFF" fill-rule="nonzero"></path>
                        </g>
                    </g>
                    <circle id="Oval" fill="#4CA3E2" mask="url(#mask-4)" cx="102.5" cy="39.5" r="22.5"></circle>
                    <circle id="Oval-Copy-2" fill="#49C1DB" mask="url(#mask-4)" cx="197.5" cy="39.5" r="22.5"></circle>
                    <path d="M91.2894059,39.3050386 C97.2731904,36.8845185 101.263317,35.2887635 103.259786,34.5177737 C108.960112,32.3164408 109.964765,32.012775 110.736792,32.0001481 C110.906592,31.9973709 111.282709,32.0323403 111.528637,32.2176168 C111.736293,32.3740608 111.891131,32.5490342 111.918472,32.6973602 C111.945813,32.8456862 112.021298,33.2614825 111.994234,33.5255003 C111.685331,36.538957 110.392941,43.7356481 109.712947,47.1107712 C109.425215,48.5389123 108.749916,48.9439068 108.201428,48.9907685 C107.009437,49.0926097 106.213041,48.333231 105.05854,47.6305851 C103.251973,46.5310829 102.231378,45.8466394 100.477792,44.7737284 C98.4512199,43.5337941 99.8233607,43.2164198 100.978298,42.1026753 C101.280551,41.8112031 106.61104,37.2840985 106.712691,36.8817498 C106.725405,36.8314293 106.600254,36.3715755 106.480235,36.2725313 C106.360216,36.173487 106.183078,36.2073563 106.05525,36.2342928 C105.874058,36.2724746 102.988044,38.0435478 97.3972084,41.5475125 C96.578023,42.0697835 95.8360303,42.3242514 95.1712303,42.3109163 C94.4383416,42.2962155 93.0285578,41.9261771 91.9805284,41.6098774 C90.6950778,41.2219229 89.9179399,41.0526395 90.0069027,40.3937728 C90.0532401,40.0505942 90.4807411,39.6876828 91.2894059,39.3050386 Z" id="Path-3" fill="#FFFFFF" mask="url(#mask-4)"></path>
                    <rect id="Rectangle" fill="#4CA3E2" mask="url(#mask-4)" x="121" y="36" width="43" height="7" rx="3.5"></rect>
                    <path d="M160.752577,34.3600877 L169.048808,43.8414954 C169.412491,44.257132 169.370373,44.8888946 168.954736,45.2525767 C168.772445,45.4120818 168.538455,45.5 168.296232,45.5 L151.703768,45.5 C151.151483,45.5 150.703768,45.0522847 150.703768,44.5 C150.703768,44.2577769 150.791686,44.0237869 150.951192,43.8414954 L159.247423,34.3600877 C159.611105,33.944451 160.242868,33.9023335 160.658505,34.2660156 C160.691915,34.29525 160.723342,34.3266769 160.752577,34.3600877 Z" id="Triangle" fill="#4CA3E2" mask="url(#mask-4)" transform="translate(160.000000, 39.500000) rotate(90.000000) translate(-160.000000, -39.500000) "></path>
                    <path d="M197.5,46.375 L192.096021,49.4918537 C191.617609,49.7677879 191.00609,49.6036466 190.730155,49.1252338 C190.606839,48.9114289 190.566949,48.6595721 190.61816,48.4181248 L191.912543,42.3154748 L187.278318,38.1391464 C186.868051,37.7694172 186.835189,37.1371056 187.204918,36.7268389 C187.370152,36.5434888 187.597355,36.427723 187.84281,36.4018166 L194.046762,35.7470252 L196.586632,30.0490586 C196.811486,29.5446192 197.402695,29.3179704 197.907134,29.5428244 C198.132571,29.6433127 198.31288,29.8236222 198.413368,30.0490586 L200.953238,35.7470252 L207.15719,36.4018166 C207.706424,36.4597851 208.104673,36.95202 208.046705,37.5012541 C208.020798,37.7467094 207.905032,37.9739127 207.721682,38.1391464 L203.087457,42.3154748 L204.38184,48.4181248 C204.496431,48.9583907 204.151354,49.4892574 203.611088,49.6038487 C203.36964,49.6550602 203.117784,49.61517 202.903979,49.4918537 L197.5,46.375 Z" id="Star" fill="#FFFFFF" mask="url(#mask-4)"></path>
                </g>
            </g>
        </g>
    </g>
</svg>