<?xml version="1.0" encoding="UTF-8"?>
<svg width="300px" height="200px" viewBox="0 0 300 200" version="1.1" xmlns="http://www.w3.org/2000/svg" xmlns:xlink="http://www.w3.org/1999/xlink">
    <!-- Generator: Sketch 53.2 (72643) - https://sketchapp.com -->
    <title>Share</title>
    <desc>Created with Sketch.</desc>
    <defs>
        <linearGradient x1="50%" y1="0.339139775%" x2="50%" y2="89.231443%" id="linearGradient-1">
            <stop stop-color="#E8E0D8" offset="0%"></stop>
            <stop stop-color="#E8E6E2" offset="100%"></stop>
        </linearGradient>
        <rect id="path-2" x="0" y="0" width="300" height="200" rx="12"></rect>
    </defs>
    <g id="Page-1" stroke="none" stroke-width="1" fill="none" fill-rule="evenodd">
        <g id="Artboard-Copy-4" transform="translate(-209.000000, -188.000000)">
            <g id="Group-4" transform="translate(209.000000, 188.000000)">
                <g id="Share">
                    <mask id="mask-3" fill="white">
                        <use xlink:href="#path-2"></use>
                    </mask>
                    <use id="Rectangle" fill="url(#linearGradient-1)" xlink:href="#path-2"></use>
                    <path d="M32.5,-0.5 L267.5,-0.5 L267.5,166 C267.5,171.246705 263.246705,175.5 258,175.5 L42,175.5 C36.7532949,175.5 32.5,171.246705 32.5,166 L32.5,-0.5 Z" id="Rectangle" stroke="#DEDCD8" fill="#FFFFFF" mask="url(#mask-3)"></path>
                    <rect id="Rectangle" fill="#EBEBEB" mask="url(#mask-3)" x="55" y="81" width="190" height="7" rx="3.5"></rect>
                    <rect id="Rectangle-Copy" fill="#EBEBEB" mask="url(#mask-3)" x="55" y="98" width="104" height="7" rx="3.5"></rect>
                    <path d="M55,-1 L245,-1 L245,58 C245,61.8659932 241.865993,65 238,65 L62,65 C58.1340068,65 55,61.8659932 55,58 L55,-1 Z" id="Rectangle" fill="#EBEBEB" mask="url(#mask-3)"></path>
                    <rect id="Rectangle" fill="#000000" opacity="0.0488048735" mask="url(#mask-3)" x="33" y="0" width="234" height="1"></rect>
                    <g id="Btn" mask="url(#mask-3)">
                        <g transform="translate(53.000000, 124.000000)">
                            <rect id="Rectangle" fill="#4CA3E2" fill-rule="evenodd" x="0" y="0" width="104" height="34" rx="17"></rect>
                            <path d="M50.1066895,19.5751953 C50.1066895,19.215493 49.9797376,18.9393727 49.7258301,18.7468262 C49.4719226,18.5542796 49.0148959,18.3511567 48.3547364,18.1374512 C47.6945768,17.9237457 47.1719584,17.7132172 46.7868653,17.5058594 C45.7373809,16.9387992 45.2126465,16.1749723 45.2126465,15.2143555 C45.2126465,14.715004 45.3533515,14.2696146 45.6347657,13.8781738 C45.9161798,13.4867331 46.3203099,13.1809907 46.847168,12.9609375 C47.3740261,12.7408843 47.9654102,12.6308594 48.6213379,12.6308594 C49.2814975,12.6308594 49.8697077,12.7504057 50.3859864,12.989502 C50.902265,13.2285982 51.3032213,13.5660785 51.5888672,14.0019531 C51.8745132,14.4378277 52.017334,14.9329399 52.017334,15.4873047 L50.1130372,15.4873047 C50.1130372,15.0641255 49.9797377,14.7351086 49.7131348,14.5002441 C49.4465319,14.2653797 49.0720239,14.1479492 48.5895997,14.1479492 C48.1241025,14.1479492 47.7622897,14.2463369 47.5041504,14.4431152 C47.2460111,14.6398936 47.1169434,14.8990869 47.1169434,15.2207031 C47.1169434,15.5211604 47.2682277,15.7729482 47.5708008,15.9760742 C47.873374,16.1792002 48.3187634,16.369628 48.9069825,16.5473633 C49.9903212,16.8732113 50.7795386,17.2773413 51.2746582,17.7597656 C51.7697779,18.2421899 52.017334,18.8430954 52.017334,19.5625 C52.017334,20.3623087 51.7147654,20.9896624 51.1096192,21.4445801 C50.5044729,21.8994977 49.6898652,22.1269531 48.6657715,22.1269531 C47.9548305,22.1269531 47.307376,21.9968275 46.7233887,21.7365723 C46.1394014,21.4763171 45.694012,21.1197939 45.3872071,20.6669922 C45.0804022,20.2141904 44.927002,19.6894561 44.927002,19.0927734 L46.8376465,19.0927734 C46.8376465,20.1126353 47.4470154,20.6225586 48.6657715,20.6225586 C49.1185733,20.6225586 49.4719226,20.5305185 49.7258301,20.3464355 C49.9797376,20.1623526 50.1066895,19.9052751 50.1066895,19.5751953 Z M60.5028809,22 L58.598584,22 L58.598584,18.0390625 L54.8852051,18.0390625 L54.8852051,22 L52.9809082,22 L52.9809082,12.7578125 L54.8852051,12.7578125 L54.8852051,16.5029297 L58.598584,16.5029297 L58.598584,12.7578125 L60.5028809,12.7578125 L60.5028809,22 Z M67.1729981,20.0957031 L63.8341309,20.0957031 L63.1993652,22 L61.1744629,22 L64.6148926,12.7578125 L66.379541,12.7578125 L69.8390137,22 L67.8141113,22 L67.1729981,20.0957031 Z M64.348291,18.5532227 L66.6588379,18.5532227 L65.4972168,15.09375 L64.348291,18.5532227 Z M73.7986816,18.6166992 L72.2815918,18.6166992 L72.2815918,22 L70.3772949,22 L70.3772949,12.7578125 L73.8113769,12.7578125 C74.9031793,12.7578125 75.7452933,13.0011369 76.3377441,13.487793 C76.930195,13.974449 77.226416,14.6621049 77.226416,15.5507812 C77.226416,16.1813183 77.0899428,16.7071105 76.8169922,17.1281738 C76.5440416,17.5492371 76.1303901,17.8846016 75.5760254,18.1342773 L77.5755371,21.9111328 L77.5755371,22 L75.5315918,22 L73.7986816,18.6166992 Z M72.2815918,17.0742188 L73.8177246,17.0742188 C74.2959171,17.0742188 74.6661933,16.9525566 74.9285644,16.7092285 C75.1909355,16.4659005 75.3221191,16.130536 75.3221191,15.703125 C75.3221191,15.2672504 75.1983411,14.9244804 74.9507812,14.6748047 C74.7032214,14.425129 74.3234238,14.300293 73.8113769,14.300293 L72.2815918,14.300293 L72.2815918,17.0742188 Z M83.9092285,17.9946289 L80.2529785,17.9946289 L80.2529785,20.4702148 L84.5439941,20.4702148 L84.5439941,22 L78.3486816,22 L78.3486816,12.7578125 L84.5312988,12.7578125 L84.5312988,14.300293 L80.2529785,14.300293 L80.2529785,16.5029297 L83.9092285,16.5029297 L83.9092285,17.9946289 Z" id="SHARE" fill="#FFFFFF" fill-rule="nonzero"></path>
                            <path d="M13.3061509,16.4574023 C18.4064142,14.3405562 21.8073885,12.9450016 23.5090739,12.2707387 C28.3677314,10.345581 29.2240451,10.0800125 29.8820801,10.0689697 C30.0268088,10.066541 30.3473907,10.0971231 30.5570068,10.2591553 C30.7340026,10.395972 30.8659784,10.5489936 30.8892822,10.6787109 C30.9125861,10.8084283 30.9769252,11.1720595 30.9538574,11.4029541 C30.6905651,14.0383481 29.589,20.3321558 29.0094082,23.2838422 C28.7641612,24.5328114 28.1885714,24.886996 27.7210693,24.9279785 C26.705079,25.0170429 26.0262729,24.3529345 25.0422366,23.7384412 C23.5024141,22.7768805 22.6325123,22.178306 21.1378479,21.2400004 C19.4105046,20.155626 20.5800452,19.8780689 21.5644531,18.9040527 C21.8220774,18.6491481 26.3655061,14.6900056 26.4521484,14.3381348 C26.4629845,14.2941274 26.3563129,13.891966 26.2540148,13.8053477 C26.1517168,13.7187294 26.0007336,13.7483495 25.8917799,13.7719066 C25.7373414,13.8052981 23.277455,15.3541758 18.5121206,18.4185396 C17.8138901,18.8752874 17.1814545,19.0978303 16.6148139,19.0861682 C15.9901382,19.0733117 14.7885126,18.7496976 13.8952275,18.4730803 C12.7995769,18.1337979 12.1371855,17.9857524 12.2130127,17.4095459 C12.2525082,17.1094219 12.6168876,16.7920407 13.3061509,16.4574023 Z" id="Path-3" fill="#FFFFFF" fill-rule="evenodd"></path>
                        </g>
                    </g>
                </g>
            </g>
        </g>
    </g>
</svg>